<svg xmlns="http://www.w3.org/2000/svg" version="1.1" xmlns:xlink="http://www.w3.org/1999/xlink" xmlns:svgjs="http://svgjs.com/svgjs" width="1000" height="322" preserveAspectRatio="none" viewBox="0 0 1000 322"><g mask="url(&quot;#SvgjsMask1862&quot;)" fill="none"><use xlink:href="#SvgjsG1864" transform="translate(0, 0)" fill="#0f457b"></use><use xlink:href="#SvgjsG1864" transform="translate(480, 0)" fill="#0f457b"></use><use xlink:href="#SvgjsG1864" transform="translate(960, 0)" fill="#0f457b"></use></g><defs><mask id="SvgjsMask1862"><rect width="1000" height="322" fill="#ffffff"></rect></mask><g id="SvgjsG1863"><path d="M7.713 15.485C3.459 15.485 0 12.025 0 7.768 0 3.513 3.459 0.051 7.713 0.051S15.432 3.513 15.432 7.768c0 4.257-3.465 7.716-7.719 7.717z m0-1.91c3.201 0 5.81-2.604 5.81-5.809 0-3.199-2.61-5.807-5.81-5.807-3.202 0-5.804 2.609-5.804 5.807-0.001 3.206 2.602 5.809 5.804 5.809z"></path><path d="M7.753 8.787a0.574 0.574 0 0 1-0.554-0.042 0.578 0.578 0 0 1-0.259-0.399L6.931 3.862a0.58 0.58 0 0 1 1.162 0v3.478l2.975-1.4a0.578 0.578 0 0 1 0.773 0.275c0.138 0.292 0.011 0.637-0.276 0.774l-3.81 1.798z"></path></g><g id="SvgjsG1864"><use xlink:href="#SvgjsG1863" transform="translate(0, 0) scale(2)" fill="#0f457b"></use><use xlink:href="#SvgjsG1863" transform="translate(0, 48) scale(2)" fill="#0f457b"></use><use xlink:href="#SvgjsG1863" transform="translate(0, 96) scale(2)" fill="#0f457b"></use><use xlink:href="#SvgjsG1863" transform="translate(0, 144) scale(2)" fill="#0f457b"></use><use xlink:href="#SvgjsG1863" transform="translate(0, 192) scale(2)" fill="#0f457b"></use><use xlink:href="#SvgjsG1863" transform="translate(0, 240) scale(2)" fill="#0f457b"></use><use xlink:href="#SvgjsG1863" transform="translate(0, 288) scale(2)" fill="#0f457b"></use><use xlink:href="#SvgjsG1863" transform="translate(48, 0) scale(2)" fill="#0f457b"></use><use xlink:href="#SvgjsG1863" transform="translate(48, 48) scale(2)" fill="#0f457b"></use><use xlink:href="#SvgjsG1863" transform="translate(48, 96) scale(2)" fill="#0f457b"></use><use xlink:href="#SvgjsG1863" transform="translate(48, 144) scale(2)" fill="#0f457b"></use><use xlink:href="#SvgjsG1863" transform="translate(48, 192) scale(2)" fill="#0f457b"></use><use xlink:href="#SvgjsG1863" transform="translate(48, 240) scale(2)" fill="#0f457b"></use><use xlink:href="#SvgjsG1863" transform="translate(48, 288) scale(2)" fill="#0f457b"></use><use xlink:href="#SvgjsG1863" transform="translate(96, 0) scale(2)" fill="#0f457b"></use><use xlink:href="#SvgjsG1863" transform="translate(96, 48) scale(2)" fill="#0f457b"></use><use xlink:href="#SvgjsG1863" transform="translate(96, 96) scale(2)" fill="#0f457b"></use><use xlink:href="#SvgjsG1863" transform="translate(96, 144) scale(2)" fill="#0f457b"></use><use xlink:href="#SvgjsG1863" transform="translate(96, 192) scale(2)" fill="#0f457b"></use><use xlink:href="#SvgjsG1863" transform="translate(96, 240) scale(2)" fill="#0f457b"></use><use xlink:href="#SvgjsG1863" transform="translate(96, 288) scale(2)" fill="#0f457b"></use><use xlink:href="#SvgjsG1863" transform="translate(144, 0) scale(2)" fill="#0f457b"></use><use xlink:href="#SvgjsG1863" transform="translate(144, 48) scale(2)" fill="#0f457b"></use><use xlink:href="#SvgjsG1863" transform="translate(144, 96) scale(2)" fill="#0f457b"></use><use xlink:href="#SvgjsG1863" transform="translate(144, 144) scale(2)" fill="#0f457b"></use><use xlink:href="#SvgjsG1863" transform="translate(144, 192) scale(2)" fill="#0f457b"></use><use xlink:href="#SvgjsG1863" transform="translate(144, 240) scale(2)" fill="#0f457b"></use><use xlink:href="#SvgjsG1863" transform="translate(144, 288) scale(2)" fill="#0f457b"></use><use xlink:href="#SvgjsG1863" transform="translate(192, 0) scale(2)" fill="#0f457b"></use><use xlink:href="#SvgjsG1863" transform="translate(192, 48) scale(2)" fill="#0f457b"></use><use xlink:href="#SvgjsG1863" transform="translate(192, 96) scale(2)" fill="#0f457b"></use><use xlink:href="#SvgjsG1863" transform="translate(192, 144) scale(2)" fill="#0f457b"></use><use xlink:href="#SvgjsG1863" transform="translate(192, 192) scale(2)" fill="#0f457b"></use><use xlink:href="#SvgjsG1863" transform="translate(192, 240) scale(2)" fill="#0f457b"></use><use xlink:href="#SvgjsG1863" transform="translate(192, 288) scale(2)" fill="#0f457b"></use><use xlink:href="#SvgjsG1863" transform="translate(240, 0) scale(2)" fill="#0f457b"></use><use xlink:href="#SvgjsG1863" transform="translate(240, 48) scale(2)" fill="#0f457b"></use><use xlink:href="#SvgjsG1863" transform="translate(240, 96) scale(2)" fill="#0f457b"></use><use xlink:href="#SvgjsG1863" transform="translate(240, 144) scale(2)" fill="#0f457b"></use><use xlink:href="#SvgjsG1863" transform="translate(240, 192) scale(2)" fill="#0f457b"></use><use xlink:href="#SvgjsG1863" transform="translate(240, 240) scale(2)" fill="#0f457b"></use><use xlink:href="#SvgjsG1863" transform="translate(240, 288) scale(2)" fill="#0f457b"></use><use xlink:href="#SvgjsG1863" transform="translate(288, 0) scale(2)" fill="#0f457b"></use><use xlink:href="#SvgjsG1863" transform="translate(288, 48) scale(2)" fill="#0f457b"></use><use xlink:href="#SvgjsG1863" transform="translate(288, 96) scale(2)" fill="#0f457b"></use><use xlink:href="#SvgjsG1863" transform="translate(288, 144) scale(2)" fill="#0f457b"></use><use xlink:href="#SvgjsG1863" transform="translate(288, 192) scale(2)" fill="#0f457b"></use><use xlink:href="#SvgjsG1863" transform="translate(288, 240) scale(2)" fill="#0f457b"></use><use xlink:href="#SvgjsG1863" transform="translate(288, 288) scale(2)" fill="#0f457b"></use><use xlink:href="#SvgjsG1863" transform="translate(336, 0) scale(2)" fill="#0f457b"></use><use xlink:href="#SvgjsG1863" transform="translate(336, 48) scale(2)" fill="#0f457b"></use><use xlink:href="#SvgjsG1863" transform="translate(336, 96) scale(2)" fill="#0f457b"></use><use xlink:href="#SvgjsG1863" transform="translate(336, 144) scale(2)" fill="#0f457b"></use><use xlink:href="#SvgjsG1863" transform="translate(336, 192) scale(2)" fill="#0f457b"></use><use xlink:href="#SvgjsG1863" transform="translate(336, 240) scale(2)" fill="#0f457b"></use><use xlink:href="#SvgjsG1863" transform="translate(336, 288) scale(2)" fill="#0f457b"></use><use xlink:href="#SvgjsG1863" transform="translate(384, 0) scale(2)" fill="#0f457b"></use><use xlink:href="#SvgjsG1863" transform="translate(384, 48) scale(2)" fill="#0f457b"></use><use xlink:href="#SvgjsG1863" transform="translate(384, 96) scale(2)" fill="#0f457b"></use><use xlink:href="#SvgjsG1863" transform="translate(384, 144) scale(2)" fill="#0f457b"></use><use xlink:href="#SvgjsG1863" transform="translate(384, 192) scale(2)" fill="#0f457b"></use><use xlink:href="#SvgjsG1863" transform="translate(384, 240) scale(2)" fill="#0f457b"></use><use xlink:href="#SvgjsG1863" transform="translate(384, 288) scale(2)" fill="#0f457b"></use><use xlink:href="#SvgjsG1863" transform="translate(432, 0) scale(2)" fill="#0f457b"></use><use xlink:href="#SvgjsG1863" transform="translate(432, 48) scale(2)" fill="#0f457b"></use><use xlink:href="#SvgjsG1863" transform="translate(432, 96) scale(2)" fill="#0f457b"></use><use xlink:href="#SvgjsG1863" transform="translate(432, 144) scale(2)" fill="#0f457b"></use><use xlink:href="#SvgjsG1863" transform="translate(432, 192) scale(2)" fill="#0f457b"></use><use xlink:href="#SvgjsG1863" transform="translate(432, 240) scale(2)" fill="#0f457b"></use><use xlink:href="#SvgjsG1863" transform="translate(432, 288) scale(2)" fill="#0f457b"></use></g></defs></svg>